<?xml version="1.0" standalone="no"?>
<!DOCTYPE svg PUBLIC "-//W3C//DTD SVG 1.1//EN"
"http://www.w3.org/Graphics/SVG/1.1/DTD/svg11.dtd">

<svg width="542" height="120" view_box="0 0 542 120"
xmlns="http://www.w3.org/2000/svg"
xmlns:link="http://www.w3.org/1999/xlink">\n\n<desc>Généré par Mocodo 2.3.7 le Tue, 14 Jun 2022 01:05:52</desc>

<rect id="frame" x="0" y="0" width="542" height="120" fill="#f7f7f7" stroke="none" stroke-width="0"/>

<!-- Association IS CATEGORIZED BY -->
<line x1="221" y1="60" x2="358" y2="60" stroke="#e08214" stroke-width="2"/>
<text x="260" y="77.0" fill="#542788" font-family="Verdana" font-size="12">0,N</text>
<line x1="497" y1="60" x2="358" y2="60" stroke="#e08214" stroke-width="2"/>
<text x="434" y="77.0" fill="#542788" font-family="Verdana" font-size="12">0,N</text>
<g id="association-IS CATEGORIZED BY">
	<path d="M 415 35 a 14 14 90 0 1 14 14 V 60 h -142 V 49 a 14 14 90 0 1 14 -14" fill="#fdb863" stroke="#fdb863" stroke-width="0"/>
	<path d="M 429 60.0 v 11 a 14 14 90 0 1 -14 14 H 301 a 14 14 90 0 1 -14 -14 V 60.0 H 142" fill="#fee0b6" stroke="#fee0b6" stroke-width="0"/>
	<rect x="287" y="35" width="142" height="50" fill="none" rx="14" stroke="#e08214" stroke-width="2"/>
	<line x1="287" y1="60" x2="429" y2="60" stroke="#e08214" stroke-width="1"/>
	<text x="294" y="52.7" fill="#000000" font-family="Verdana" font-size="12">IS CATEGORIZED BY</text>
</g>

<!-- Association OWNS -->
<line x1="221" y1="60" x2="128" y2="60" stroke="#e08214" stroke-width="2"/>
<text x="161" y="77.0" fill="#542788" font-family="Verdana" font-size="12">1,1</text>
<line x1="39" y1="60" x2="128" y2="60" stroke="#e08214" stroke-width="2"/>
<text x="74" y="77.0" fill="#542788" font-family="Verdana" font-size="12">0,N</text>
<g id="association-OWNS">
	<path d="M 141 35 a 14 14 90 0 1 14 14 V 60 h -54 V 49 a 14 14 90 0 1 14 -14" fill="#fdb863" stroke="#fdb863" stroke-width="0"/>
	<path d="M 155 60.0 v 11 a 14 14 90 0 1 -14 14 H 115 a 14 14 90 0 1 -14 -14 V 60.0 H 54" fill="#fee0b6" stroke="#fee0b6" stroke-width="0"/>
	<rect x="101" y="35" width="54" height="50" fill="none" rx="14" stroke="#e08214" stroke-width="2"/>
	<line x1="101" y1="60" x2="155" y2="60" stroke="#e08214" stroke-width="1"/>
	<text x="108" y="52.7" fill="#000000" font-family="Verdana" font-size="12">OWNS</text>
</g>

<!-- Entity LIST -->
<g id="entity-LIST">
	<g id="frame-LIST">
		<rect x="9" y="18" width="60" height="25" fill="#b2abd2" stroke="#b2abd2" stroke-width="0"/>
		<rect x="9" y="43.0" width="60" height="59" fill="#d8daeb" stroke="#d8daeb" stroke-width="0"/>
		<rect x="9" y="18" width="60" height="84" fill="none" stroke="#8073ac" stroke-width="2"/>
		<line x1="9" y1="43" x2="69" y2="43" stroke="#8073ac" stroke-width="1"/>
	</g>
	<text x="25" y="35.7" fill="#000000" font-family="Verdana" font-size="12">LIST</text>
	<text x="14" y="60.8" fill="#000000" font-family="Verdana" font-size="12">codeList</text>
	<line x1="14" y1="63" x2="64" y2="63" stroke="#000000" stroke-width="1"/>
	<text x="14" y="77.8" fill="#000000" font-family="Verdana" font-size="12">name</text>
	<text x="14" y="94.8" fill="#000000" font-family="Verdana" font-size="12">position</text>
</g>

<!-- Entity CARD -->
<g id="entity-CARD">
	<g id="frame-CARD">
		<rect x="187" y="9" width="68" height="25" fill="#b2abd2" stroke="#b2abd2" stroke-width="0"/>
		<rect x="187" y="34.0" width="68" height="77" fill="#d8daeb" stroke="#d8daeb" stroke-width="0"/>
		<rect x="187" y="9" width="68" height="102" fill="none" stroke="#8073ac" stroke-width="2"/>
		<line x1="187" y1="34" x2="255" y2="34" stroke="#8073ac" stroke-width="1"/>
	</g>
	<text x="203" y="26.7" fill="#000000" font-family="Verdana" font-size="12">CARD</text>
	<text x="192" y="51.7" fill="#000000" font-family="Verdana" font-size="12">codeCard</text>
	<line x1="192" y1="54" x2="249" y2="54" stroke="#000000" stroke-width="1"/>
	<text x="192" y="68.8" fill="#000000" font-family="Verdana" font-size="12">title</text>
	<text x="192" y="85.8" fill="#000000" font-family="Verdana" font-size="12">color</text>
	<text x="192" y="102.8" fill="#000000" font-family="Verdana" font-size="12">position</text>
</g>

<!-- Entity LABEL -->
<g id="entity-LABEL">
	<g id="frame-LABEL">
		<rect x="461" y="18" width="72" height="25" fill="#b2abd2" stroke="#b2abd2" stroke-width="0"/>
		<rect x="461" y="43.0" width="72" height="59" fill="#d8daeb" stroke="#d8daeb" stroke-width="0"/>
		<rect x="461" y="18" width="72" height="84" fill="none" stroke="#8073ac" stroke-width="2"/>
		<line x1="461" y1="43" x2="533" y2="43" stroke="#8073ac" stroke-width="1"/>
	</g>
	<text x="478" y="35.7" fill="#000000" font-family="Verdana" font-size="12">LABEL</text>
	<text x="466" y="60.8" fill="#000000" font-family="Verdana" font-size="12">codeLabel</text>
	<line x1="466" y1="63" x2="527" y2="63" stroke="#000000" stroke-width="1"/>
	<text x="466" y="77.8" fill="#000000" font-family="Verdana" font-size="12">title</text>
	<text x="466" y="94.8" fill="#000000" font-family="Verdana" font-size="12">color</text>
</g>
</svg>